<?xml version="1.0" encoding="UTF-8"?>
<svg id="_레이어_2" data-name="레이어 2" xmlns="http://www.w3.org/2000/svg" viewBox="0 0 208.65 234">
  <defs>
    <style>
      .cls-1 {
        stroke-dasharray: 0 0 12.13 12.13;
      }

      .cls-1, .cls-2, .cls-3, .cls-4 {
        fill: none;
      }

      .cls-1, .cls-2, .cls-3, .cls-4, .cls-5 {
        stroke: #231815;
        stroke-miterlimit: 10;
      }

      .cls-1, .cls-3, .cls-4 {
        stroke-width: 7px;
      }

      .cls-2 {
        stroke-width: 2px;
      }

      .cls-4 {
        stroke-dasharray: 0 0 12.61 12.61;
      }

      .cls-6 {
        fill: #874898;
      }

      .cls-5 {
        fill: #fff;
        stroke-width: 5px;
      }
    </style>
  </defs>
  <g id="_레이어_1-2" data-name="레이어 1">
    <circle class="cls-3" cx="104.33" cy="117.61" r="100.83"/>
    <g>
      <path class="cls-3" d="m3.5,117.61c0-1.89.71-3.74,2.06-5.53"/>
      <path class="cls-1" d="m15.16,104.83c16.92-8.66,50.5-14.57,89.16-14.57,43.15,0,79.96,7.35,94.36,17.69"/>
      <path class="cls-3" d="m203.09,112.08c1.35,1.78,2.06,3.63,2.06,5.53"/>
    </g>
    <path class="cls-3" d="m205.15,117.61c0,15.1-45.14,27.35-100.83,27.35S3.5,132.71,3.5,117.61"/>
    <g>
      <g>
        <path class="cls-3" d="m23.06,59.98c0-1.84.83-3.63,2.41-5.35"/>
        <path class="cls-4" d="m36.09,48c14.48-6.06,39.63-10.07,68.24-10.07,32.79,0,61.04,5.27,73.88,12.85"/>
        <path class="cls-3" d="m183.18,54.63c1.57,1.71,2.41,3.5,2.41,5.35"/>
      </g>
      <path class="cls-3" d="m185.59,59.98c0,12.17-36.38,22.04-81.26,22.04s-81.26-9.87-81.26-22.04"/>
    </g>
    <g>
      <g>
        <path class="cls-3" d="m23.06,170.75c0-1.84.83-3.63,2.41-5.35"/>
        <path class="cls-4" d="m36.09,158.78c14.48-6.06,39.63-10.07,68.24-10.07,32.79,0,61.04,5.27,73.88,12.85"/>
        <path class="cls-3" d="m183.18,165.41c1.57,1.71,2.41,3.5,2.41,5.35"/>
      </g>
      <path class="cls-3" d="m185.59,170.75c0,12.17-36.38,22.04-81.26,22.04s-81.26-9.87-81.26-22.04"/>
    </g>
    <g>
      <path class="cls-3" d="m104.08,16.78c1.89,0,3.74.71,5.53,2.06"/>
      <path class="cls-1" d="m116.86,28.45c8.66,16.92,14.57,50.5,14.57,89.16,0,43.15-7.35,79.96-17.69,94.36"/>
      <path class="cls-3" d="m109.6,216.37c-1.78,1.35-3.63,2.06-5.53,2.06"/>
    </g>
    <path class="cls-3" d="m104.08,218.43c-15.1,0-27.35-45.14-27.35-100.83s12.24-100.83,27.35-100.83"/>
    <circle class="cls-5" cx="104.08" cy="13.55" r="11.05"/>
    <ellipse class="cls-2" cx="104.08" cy="13.55" rx="3.03" ry="5.92"/>
    <circle class="cls-5" cx="104.08" cy="220.45" r="11.05"/>
    <polyline class="cls-2" points="102.56 214.51 104.08 214.51 104.08 225.59 101.86 225.59 105.97 225.59"/>
    <g>
      <path class="cls-6" d="m30.83,83.41c2.58.41,3.87.6,6.46.98-1.16,8.07-1.74,12.11-2.91,20.18-.38,2.64-.91,4.64-1.62,5.98-.92,1.76-2.36,3.07-4.3,3.92s-4.35,1.05-7.24.56c-3.39-.57-5.84-1.92-7.33-4-1.49-2.08-1.9-4.82-1.27-8.21,2.6.21,3.9.31,6.5.48-.25,1.83-.19,3.16.17,4,.54,1.27,1.57,2.03,3.08,2.29,1.53.26,2.68.02,3.44-.69.76-.72,1.35-2.36,1.76-4.94,1.3-8.22,1.96-12.33,3.26-20.55Z"/>
      <path class="cls-6" d="m40.08,105.18c.27-2.03,1.05-3.93,2.34-5.7,1.28-1.77,2.93-3.04,4.94-3.82,2.01-.78,4.17-1.04,6.5-.8,3.6.38,6.43,1.79,8.55,4.27,2.12,2.48,3.07,5.46,2.8,8.95-.27,3.52-1.7,6.35-4.33,8.45-2.63,2.11-5.82,2.98-9.53,2.59-2.29-.24-4.43-.97-6.39-2.17-1.96-1.21-3.35-2.81-4.18-4.8-.83-1.99-1.06-4.31-.71-6.97Zm6.56,1.15c-.27,2.3.1,4.13,1.12,5.48,1.02,1.35,2.39,2.13,4.1,2.31,1.71.18,3.21-.29,4.48-1.41,1.27-1.11,2.01-2.84,2.22-5.18.21-2.28-.2-4.08-1.21-5.41-1.01-1.33-2.34-2.08-4-2.26-1.66-.17-3.12.28-4.39,1.38-1.27,1.09-2.05,2.79-2.32,5.08Z"/>
      <path class="cls-6" d="m92.3,121.16c-2.66-.05-3.98-.09-6.64-.18.16-4.76.24-7.14.41-11.9.09-2.52,0-4.15-.24-4.9-.25-.75-.67-1.34-1.27-1.77-.6-.43-1.33-.67-2.19-.7-1.1-.05-2.11.2-3.01.74-.91.54-1.55,1.29-1.93,2.23-.38.95-.64,2.72-.78,5.33-.23,4.22-.34,6.33-.57,10.55-2.65-.14-3.98-.22-6.63-.4.63-9.31.94-13.97,1.57-23.28,2.35.16,3.52.23,5.86.36l-.19,3.42c2.24-2.52,4.92-3.7,8.08-3.58,1.39.05,2.66.34,3.8.87,1.14.52,2,1.17,2.58,1.95.58.78.97,1.65,1.19,2.62.21.97.3,2.36.27,4.16-.12,5.8-.18,8.7-.3,14.5Z"/>
      <path class="cls-6" d="m98.4,122.78c3.04.37,4.56.54,7.62.86.13.82.44,1.38.89,1.68.64.42,1.64.64,3.01.62,1.75-.03,3.06-.3,3.92-.8.58-.34,1.02-.87,1.29-1.59.19-.51.27-1.47.23-2.84-.04-1.36-.05-2.04-.09-3.4-1.9,2.57-4.39,3.89-7.41,3.92-3.37.04-6.06-1.29-7.99-3.95-1.52-2.1-2.25-4.72-2.22-7.84.04-3.91,1.05-6.89,3-8.94,1.95-2.06,4.33-3.09,7.19-3.13,2.95-.03,5.4,1.18,7.41,3.66-.04-1.31-.05-1.96-.09-3.27,2.37-.06,3.55-.1,5.92-.2.34,8.37.5,12.55.84,20.92.11,2.75-.05,4.82-.49,6.2-.44,1.38-1.09,2.48-1.96,3.28s-2.04,1.45-3.53,1.93c-1.49.48-3.38.75-5.68.78-4.33.07-7.42-.61-9.22-1.97-1.8-1.36-2.68-3.09-2.67-5.17,0-.21.01-.45.03-.75Zm5.89-13.68c0,2.48.52,4.29,1.55,5.43,1.03,1.14,2.29,1.71,3.79,1.68,1.6-.02,2.95-.64,4.03-1.85,1.08-1.2,1.58-2.97,1.51-5.28-.06-2.42-.63-4.2-1.69-5.34s-2.37-1.71-3.95-1.68c-1.53.02-2.78.61-3.77,1.77-.99,1.16-1.48,2.91-1.47,5.27Z"/>
      <path class="cls-6" d="m127.16,94.1c-.12-2.28-.18-3.42-.31-5.7,2.48-.13,3.72-.21,6.19-.37.15,2.28.23,3.42.38,5.7-2.51.17-3.76.24-6.27.38Zm1.42,26.46c-.5-9.32-.75-13.98-1.25-23.3,2.53-.14,3.79-.21,6.31-.38.63,9.31.94,13.97,1.57,23.28-2.65.18-3.98.26-6.63.4Z"/>
      <path class="cls-6" d="m164.73,117.27c-2.64.34-3.96.5-6.6.8l-1.36-11.83c-.29-2.5-.61-4.11-.97-4.81s-.86-1.23-1.52-1.57c-.66-.34-1.41-.46-2.27-.37-1.1.12-2.06.51-2.87,1.18-.82.67-1.35,1.5-1.58,2.49-.23.99-.23,2.79.02,5.38.4,4.21.6,6.31,1,10.52-2.65.25-3.97.37-6.62.58-.76-9.3-1.13-13.96-1.89-23.26,2.34-.19,3.51-.29,5.86-.51.13,1.37.19,2.05.32,3.41,1.85-2.82,4.32-4.39,7.47-4.74,1.39-.15,2.68-.06,3.89.29s2.15.86,2.84,1.55c.69.68,1.21,1.49,1.56,2.42.36.93.65,2.29.88,4.07.74,5.75,1.11,8.63,1.85,14.38Z"/>
      <path class="cls-6" d="m194,112.6c-2.62.5-3.93.74-6.56,1.2-.83-4.69-1.24-7.04-2.07-11.73-.44-2.48-.86-4.06-1.26-4.74-.4-.68-.94-1.17-1.61-1.47-.68-.3-1.44-.38-2.29-.23-1.09.18-2.03.63-2.8,1.35-.78.72-1.26,1.58-1.43,2.59-.17,1.01-.06,2.8.34,5.37.65,4.18.98,6.27,1.63,10.44-2.63.41-3.95.61-6.58.98-1.32-9.24-1.98-13.86-3.29-23.1,2.33-.33,3.5-.51,5.82-.87.21,1.35.32,2.03.53,3.39,1.68-2.93,4.05-4.65,7.18-5.19,1.38-.24,2.68-.22,3.91.06s2.21.73,2.94,1.37c.73.64,1.3,1.41,1.71,2.32.41.91.79,2.24,1.12,4.01,1.09,5.7,1.63,8.55,2.72,14.25Z"/>
    </g>
  </g>
</svg>
